HIERARCHY
ROOT Hips
{
	OFFSET 0.000000 0.000000 0.000000
	CHANNELS 6 Xposition Yposition Zposition Zrotation Yrotation Xrotation 
	JOINT LHipJoint
	{
		OFFSET 0.000000 0.000000 0.000000
		CHANNELS 3 Zrotation Yrotation Xrotation
		JOINT LeftUpLeg
		{
			OFFSET 1.363060 -1.794630 0.839290
			CHANNELS 3 Zrotation Yrotation Xrotation
			JOINT LeftLeg
			{
				OFFSET 2.448110 -6.726130 0.000000
				CHANNELS 3 Zrotation Yrotation Xrotation
				JOINT LeftFoot
				{
					OFFSET 2.562200 -7.039590 0.000000
					CHANNELS 3 Zrotation Yrotation Xrotation
					JOINT LeftToeBase
					{
						OFFSET 0.157640 -0.433110 2.322550
						CHANNELS 3 Zrotation Yrotation Xrotation
						End Site
						{
							OFFSET 0.000000 0.000000 0.000000
						}
					}
				}
			}
		}
	}
	JOINT RHipJoint
	{
		OFFSET 0.000000 0.000000 0.000000
		CHANNELS 3 Zrotation Yrotation Xrotation
		JOINT RightUpLeg
		{
			OFFSET -1.305520 -1.794630 0.839290
			CHANNELS 3 Zrotation Yrotation Xrotation
			JOINT RightLeg
			{
				OFFSET -2.542530 -6.985550 0.000000
				CHANNELS 3 Zrotation Yrotation Xrotation
				JOINT RightFoot
				{
					OFFSET -2.568260 -7.056230 0.000000
					CHANNELS 3 Zrotation Yrotation Xrotation
					JOINT RightToeBase
					{
						OFFSET -0.164730 -0.452590 2.363150
						CHANNELS 3 Zrotation Yrotation Xrotation
						End Site
						{
							OFFSET 0.000000 0.000000 0.000000
						}
					}
				}
			}
		}
	}
	JOINT LowerBack
	{
		OFFSET 0.000000 0.000000 0.000000
		CHANNELS 3 Zrotation Yrotation Xrotation
		JOINT Spine
		{
			OFFSET 0.028270 2.035590 -0.193380
			CHANNELS 3 Zrotation Yrotation Xrotation
			JOINT Spine1
			{
				OFFSET 0.056720 2.048850 -0.042750
				CHANNELS 3 Zrotation Yrotation Xrotation
				JOINT Neck
				{
					OFFSET 0.000000 0.000000 0.000000
					CHANNELS 3 Zrotation Yrotation Xrotation
					JOINT Neck1
					{
						OFFSET -0.054170 1.746240 0.172020
						CHANNELS 3 Zrotation Yrotation Xrotation
						JOINT Head
						{
							OFFSET 0.104070 1.761360 -0.123970
							CHANNELS 3 Zrotation Yrotation Xrotation
							End Site
							{
								OFFSET 0.000000 0.000000 0.000000
							}
						}
					}
				}
				JOINT LeftShoulder
				{
					OFFSET 0.000000 0.000000 0.000000
					CHANNELS 3 Zrotation Yrotation Xrotation
					JOINT LeftArm
					{
						OFFSET 3.362410 1.200890 -0.311210
						CHANNELS 3 Zrotation Yrotation Xrotation
						JOINT LeftForeArm
						{
							OFFSET 4.983000 -0.000000 -0.000000
							CHANNELS 3 Zrotation Yrotation Xrotation
							JOINT LeftHand
							{
								OFFSET 3.483560 -0.000000 -0.000000
								CHANNELS 3 Zrotation Yrotation Xrotation
								JOINT LeftFingerBase
								{
									OFFSET 0.000000 0.000000 0.000000
									CHANNELS 3 Zrotation Yrotation Xrotation
									JOINT LeftHandIndex1
									{
										OFFSET 0.715260 -0.000000 -0.000000
										CHANNELS 3 Zrotation Yrotation Xrotation
										End Site
										{
											OFFSET 0.000000 0.000000 0.000000
										}
									}
								}
								JOINT LThumb
								{
									OFFSET 0.000000 0.000000 0.000000
									CHANNELS 3 Zrotation Yrotation Xrotation
									End Site
									{
										OFFSET 0.000000 0.000000 0.000000
									}
								}
							}
						}
					}
				}
				JOINT RightShoulder
				{
					OFFSET 0.000000 0.000000 0.000000
					CHANNELS 3 Zrotation Yrotation Xrotation
					JOINT RightArm
					{
						OFFSET -3.136600 1.374050 -0.404650
						CHANNELS 3 Zrotation Yrotation Xrotation
						JOINT RightForeArm
						{
							OFFSET -5.241900 -0.000000 -0.000000
							CHANNELS 3 Zrotation Yrotation Xrotation
							JOINT RightHand
							{
								OFFSET -3.444170 -0.000000 -0.000000
								CHANNELS 3 Zrotation Yrotation Xrotation
								JOINT RightFingerBase
								{
									OFFSET 0.000000 0.000000 0.000000
									CHANNELS 3 Zrotation Yrotation Xrotation
									JOINT RightHandIndex1
									{
										OFFSET -0.622530 -0.000000 -0.000000
										CHANNELS 3 Zrotation Yrotation Xrotation
										End Site
										{
											OFFSET 0.000000 0.000000 0.000000
										}
									}
								}
								JOINT RThumb
								{
									OFFSET 0.000000 0.000000 0.000000
									CHANNELS 3 Zrotation Yrotation Xrotation
									End Site
									{
										OFFSET 0.000000 0.000000 0.000000
									}
								}
							}
						}
					}
				}
			}
		}
	}
}
MOTION
Frames: 5
Frame Time: 0.008333
26.135374 17.195827 2.529558 123.601777 -83.805683 -90.432934 -7.951275 1.560878 2.683059 -17.766420 -2.775899 -58.152793 -1.613786 2.508089 45.722219 2.022803 9.467676 -5.297867 0.956800 0.000000 -38.002800 12.433736 -3.249105 2.578377 0.583180 -1.181841 -9.260467 1.002716 0.058889 5.288540 -0.017555 0.351505 13.856045 -0.207900 -0.000000 -69.795100 -6.186560 0.052850 -5.190524 -1.318606 0.481876 -4.806175 -1.791603 0.366338 -3.870909 -2.251308 4.708130 -7.083393 -0.488335 -0.038510 0.045656 0.000000 0.000000 0.000000 12.232157 -2.273210 3.956710 -11.078324 -61.157129 -14.036615 -0.499928 -23.123287 -0.047754 7.490967 -4.062599 -0.310291 -0.265930 0.509547 0.000000 0.000000 0.000000 0.000000 0.000000 0.000000 0.000000 -8.590984 12.014990 0.493097 28.786839 60.224846 -26.457352 -2.763674 26.267817 -0.052242 -5.666527 5.660852 -0.307721 0.007532 -0.539096 -0.000000 0.000000 0.000000 0.000000 0.000000 0.000000 0.000000 
25.908979 17.241930 2.531344 123.653418 -83.943526 -90.061566 -7.836858 1.688498 2.886483 -18.091058 -3.049948 -58.017834 -2.009573 2.288149 42.275786 1.837227 8.387871 -5.172120 0.930600 -0.000000 -39.068500 12.464620 -3.269822 2.554746 0.453931 -0.902052 -9.444176 0.848314 -0.049166 6.217765 -0.151911 -0.446960 14.922474 -0.474400 -0.000000 -68.653800 -6.336910 0.098290 -5.314598 -1.290612 0.547221 -4.849562 -1.549011 0.429363 -3.930947 -2.379846 4.568378 -7.305866 -0.305560 -0.020993 -0.010633 0.000000 0.000000 0.000000 12.393679 -1.695160 3.858476 -8.943017 -62.428923 -17.347812 -0.302103 -23.109577 -0.051114 7.682814 -3.914804 -0.308259 -0.267010 0.516437 0.000000 0.000000 0.000000 0.000000 0.000000 0.000000 0.000000 -9.639095 12.028601 0.349358 27.314362 60.398137 -28.783662 -2.849534 26.273244 -0.054240 -5.862844 5.615311 -0.316655 0.013220 -0.545471 -0.000000 0.000000 0.000000 0.000000 0.000000 0.000000 0.000000 
25.683063 17.277445 2.533520 123.510493 -84.115198 -89.504388 -7.725006 1.803138 3.098605 -18.350474 -3.355167 -57.799521 -2.413144 2.033551 38.759610 1.639195 7.300120 -4.971439 0.906600 -0.000000 -39.959100 12.477515 -3.261436 2.536245 0.375815 -0.456497 -9.632153 0.668279 -0.144301 7.445530 -0.346098 -1.740186 15.366574 -0.954100 -0.000001 -67.296300 -6.470001 0.136537 -5.437947 -1.258859 0.604316 -4.882995 -1.310519 0.483159 -3.955498 -2.480437 4.414701 -7.541664 -0.121107 -0.002806 -0.072108 0.000000 0.000000 0.000000 12.537032 -1.120340 3.799285 -6.377635 -63.683932 -20.999058 -0.131628 -23.035521 -0.053694 7.822363 -3.802317 -0.306219 -0.268112 0.522020 -0.000000 0.000000 0.000000 0.000000 0.000000 0.000000 0.000000 -10.669012 12.022018 0.214214 25.710835 60.518438 -31.173517 -2.913703 26.263043 -0.055939 -6.033890 5.581957 -0.324792 0.019289 -0.551161 -0.000000 0.000000 0.000000 0.000000 0.000000 0.000000 0.000000 
25.458258 17.301599 2.536837 123.189455 -84.333063 -88.804645 -7.627057 1.890613 3.306512 -18.518983 -3.661278 -57.489043 -2.805163 1.747427 35.264186 1.437562 6.257163 -4.687586 0.885700 0.000001 -40.617700 12.465173 -3.229736 2.516203 0.371684 0.134878 -9.787968 0.470689 -0.230164 8.960006 -0.596092 -3.449276 15.262808 -1.600300 -0.000000 -65.843700 -6.562330 0.172854 -5.543440 -1.219395 0.656530 -4.900412 -1.079848 0.531258 -3.935364 -2.558451 4.244402 -7.795978 0.063234 0.016034 -0.140588 0.000000 0.000000 0.000000 12.629794 -0.538825 3.801299 -3.176174 -64.917293 -25.153595 0.001662 -22.884742 -0.055258 7.883553 -3.711745 -0.302471 -0.268802 0.525878 0.000000 0.000000 0.000000 0.000000 0.000000 0.000000 0.000000 -11.678954 11.989918 0.085529 23.940933 60.591477 -33.632385 -2.956449 26.219665 -0.057456 -6.196483 5.571717 -0.333734 0.026212 -0.556345 -0.000000 0.000000 0.000000 0.000000 0.000000 0.000000 0.000000 
25.234369 17.313195 2.541040 122.712625 -84.572048 -88.005245 -7.540977 1.951644 3.506808 -18.614840 -3.970688 -57.080103 -3.165698 1.437503 31.893609 1.249241 5.340545 -4.337122 0.871300 0.000001 -40.973600 12.441597 -3.171854 2.478909 0.407346 0.751757 -9.952739 0.269059 -0.316704 10.851458 -0.882281 -5.338192 14.638955 -2.282700 -0.000000 -64.232500 -6.633244 0.210353 -5.618830 -1.177755 0.708161 -4.896908 -0.860404 0.577763 -3.860286 -2.610069 4.052976 -8.075235 0.246295 0.035584 -0.218262 0.000000 0.000000 0.000000 12.660848 0.056347 3.889098 0.894528 -66.102249 -30.027474 0.089568 -22.639824 -0.055608 7.841512 -3.629923 -0.295308 -0.268669 0.527765 0.000000 0.000000 0.000000 0.000000 0.000000 0.000000 0.000000 -12.655744 11.920584 -0.037695 21.973122 60.626356 -36.167383 -2.977603 26.121519 -0.058934 -6.368863 5.604854 -0.345580 0.034427 -0.561364 -0.000000 0.000000 0.000000 0.000000 0.000000 0.000000 0.000000 
